PathFileType	4	(X/Y/Z)	/Users/itak/Documents/Research/Walk-IL/dataset/trc/00057_00006.trc
DataRate	CameraRate	NumFrames	NumMarkers	Units	OrigDataRate	OrigDataStartFrame	OrigNumFrames
100.000000	100.000000	4	53	mm	100.000000	429	491
Frame#	Time	RPSI			LPSI			L3			STRN			T10			C7			CLAV			RBAK			LBAK			LSHO			LUPA			LAEL			LAOL			LWTS			LWPS			LFRA			LIFD			LHPS			LHTS			RSHO			RUPA			RAEL			RAOL			RWTS			RWPS			RFRA			RIFD			RHTS			RHPS			RBHD			LFHD			RFHD			LBHD			LHIP			RHIP			RASI			LASI			LKNE			LTHI			LANK			LTIP			LTOE			LMT1			LMT5			LHEE			RKNE			RTHI			RANK			RTIP			RTOE			RMT1			RMT5			RHEE			
		X1	Y1	Z1	X2	Y2	Z2	X3	Y3	Z3	X4	Y4	Z4	X5	Y5	Z5	X6	Y6	Z6	X7	Y7	Z7	X8	Y8	Z8	X9	Y9	Z9	X10	Y10	Z10	X11	Y11	Z11	X12	Y12	Z12	X13	Y13	Z13	X14	Y14	Z14	X15	Y15	Z15	X16	Y16	Z16	X17	Y17	Z17	X18	Y18	Z18	X19	Y19	Z19	X20	Y20	Z20	X21	Y21	Z21	X22	Y22	Z22	X23	Y23	Z23	X24	Y24	Z24	X25	Y25	Z25	X26	Y26	Z26	X27	Y27	Z27	X28	Y28	Z28	X29	Y29	Z29	X30	Y30	Z30	X31	Y31	Z31	X32	Y32	Z32	X33	Y33	Z33	X34	Y34	Z34	X35	Y35	Z35	X36	Y36	Z36	X37	Y37	Z37	X38	Y38	Z38	X39	Y39	Z39	X40	Y40	Z40	X41	Y41	Z41	X42	Y42	Z42	X43	Y43	Z43	X44	Y44	Z44	X45	Y45	Z45	X46	Y46	Z46	X47	Y47	Z47	X48	Y48	Z48	X49	Y49	Z49	X50	Y50	Z50	X51	Y51	Z51	X52	Y52	Z52	X53	Y53	Z53	

430	4.29	-1004.328491210938	1036.627197265625	-41.5106315612793	-1032.265991210938	1028.824951171875	-214.3026733398438	-1014.047729492188	1092.673095703125	-134.2393951416016	-752.6696166992188	1280.056640625	-161.9505310058594	-1023.732116699219	1228.805908203125	-138.4046173095703	-952.1834106445312	1491.993408203125	-154.8076324462891	-778.4340209960938	1395.70458984375	-164.7047424316406	-1012.732238769531	1358.287841796875	-70.28099060058594	-984.3714599609375	1452.062255859375	-252.6395874023438	-887.7151489257812	1449.319458007812	-333.4790344238281	-913.158203125	1318.771118164062	-403.4710998535156	-895.8252563476562	1102.967529296875	-413.0440368652344	-949.4161376953125	1092.50927734375	-321.220458984375	-800.8505249023438	864.0340576171875	-352.822021484375	-866.374267578125	852.3827514648438	-404.0915832519531	-876.6564331054688	993.629638671875	-418.5816040039062	-787.1417846679688	678.7589721679688	-330.8888854980469	-833.59375	770.8536376953125	-401.3536071777344	-779.5971069335938	781.9564208984375	-356.3271179199219	-875.3574829101562	1458.331665039062	15.92580127716064	-884.7809448242188	1392.677856445312	81.95648956298828	-932.314697265625	1136.9287109375	134.1667785644531	-922.5657348632812	1105.80029296875	39.5234260559082	-807.2656860351562	874.8207397460938	103.5573501586914	-876.7949829101562	868.2500610351562	160.5102844238281	-923.947265625	1056.13134765625	147.8558959960938	-834.7640991210938	683.7106323242188	93.12689208984375	-802.1439208984375	766.3958740234375	107.1168670654297	-854.0385131835938	774.7316284179688	162.6210021972656	-905.4130859375	1678.327758789062	-223.5325927734375	-739.1378784179688	1688.374145507812	-85.99980163574219	-728.5109252929688	1700.977661132812	-210.7616271972656	-907.939697265625	1656.824462890625	-87.07943725585938	-944.4086303710938	968.3301391601562	-320.1880493164062	-932.2151489257812	960.8250122070312	27.72809028625488	-810.3623657226562	975.076171875	-7.874968528747559	-824.6549072265625	972.3880004882812	-274.5908203125	-814.6264038085938	503.6250915527344	-311.2397155761719	-861.4856567382812	647.0883178710938	-334.9271850585938	-1031.660522460938	72.39450073242188	-346.9924011230469	-935.1485595703125	279.1899719238281	-343.6485595703125	-833.8384399414062	45.55172729492188	-363.6352844238281	-873.049560546875	49.48891830444336	-304.5941467285156	-938.4780883789062	45.65247344970703	-396.7430725097656	-1074.730590820312	80.09478759765625	-266.1089477539062	-874.9743041992188	513.697265625	-18.27304267883301	-857.796875	782.9856567382812	20.64916038513184	-998.39697265625	44.24297332763672	-43.44475173950195	-902.6117553710938	389.5657653808594	-17.73369216918945	-784.7150268554688	44.81758880615234	-83.71808624267578	-843.7017822265625	45.95382690429688	-121.5835647583008	-872.6101684570312	53.00246810913086	-28.20865821838379	-1047.167846679688	45.7882194519043	-101.6561050415039	
431	4.3	-1005.317504882812	1036.367919921875	-42.61392974853516	-1033.170288085938	1028.5341796875	-215.3867797851562	-1014.957763671875	1092.155395507812	-135.4385681152344	-754.40087890625	1280.248046875	-162.7452392578125	-1025.460693359375	1228.287719726562	-139.3603515625	-954.4710693359375	1491.69921875	-155.4613037109375	-780.380615234375	1395.86767578125	-165.3363037109375	-1014.681030273438	1357.740234375	-71.14350891113281	-986.4422607421875	1451.793090820312	-253.3646087646484	-889.6956787109375	1449.399658203125	-334.1147766113281	-914.8763427734375	1318.961791992188	-404.4100646972656	-897.4013671875	1103.171264648438	-414.2791442871094	-951.542724609375	1092.625854492188	-322.8167419433594	-803.5130615234375	863.73046875	-353.69921875	-868.27783203125	852.5925903320312	-406.0190734863281	-878.2180786132812	993.8590087890625	-419.9368286132812	-791.5972900390625	678.2260131835938	-331.890625	-836.0115966796875	770.8408203125	-403.0130310058594	-782.708251953125	781.5535888671875	-356.7568359375	-877.62451171875	1458.070434570312	15.31569766998291	-887.0430908203125	1392.340942382812	81.25954437255859	-934.62451171875	1136.417724609375	132.4632263183594	-924.5659790039062	1105.552001953125	37.77321624755859	-810.2763671875	874.0081176757812	101.9625701904297	-880.0091552734375	867.6775512695312	158.6489562988281	-926.4785766601562	1055.658569335938	145.9826202392578	-838.6412963867188	682.9954833984375	91.31618499755859	-805.6685791015625	765.4798583984375	105.4591674804688	-857.6515502929688	774.036376953125	160.800537109375	-908.3169555664062	1678.106689453125	-224.0473480224609	-742.10205078125	1688.64208984375	-86.45948791503906	-731.475830078125	1701.30078125	-211.22314453125	-910.8291015625	1656.584228515625	-87.60402679443359	-945.4580688476562	967.7413940429688	-321.1619873046875	-932.7695922851562	960.9446411132812	26.60733413696289	-811.05224609375	975.3385620117188	-9.199885368347168	-825.5905151367188	972.010986328125	-276.0057983398438	-823.139892578125	502.1470336914062	-311.6371154785156	-868.334716796875	645.7590942382812	-335.5588989257812	-1033.530029296875	68.50156402587891	-346.3394470214844	-940.2484130859375	276.547119140625	-343.4618835449219	-835.197265625	45.01858901977539	-363.4497985839844	-874.2379150390625	48.72830200195312	-304.414794921875	-939.974853515625	43.41750335693359	-396.5312805175781	-1076.670654296875	75.56300354003906	-265.3796691894531	-875.24853515625	513.876220703125	-19.06685829162598	-858.1814575195312	783.1822509765625	19.6944465637207	-998.3741455078125	44.29431915283203	-43.48933792114258	-902.724609375	389.744873046875	-18.34364700317383	-784.6890869140625	44.80302810668945	-83.83107757568359	-843.7361450195312	45.9056396484375	-121.7138519287109	-872.6119995117188	53.0865364074707	-28.37493324279785	-1047.173828125	45.77489471435547	-101.6676177978516	
432	4.31	-1006.296997070312	1036.047973632812	-43.80720138549805	-1034.09765625	1028.15869140625	-216.5533294677734	-1015.883483886719	1091.628662109375	-136.7299041748047	-756.0927734375	1280.355346679688	-163.5964508056641	-1027.10205078125	1227.75146484375	-140.4192199707031	-956.661865234375	1491.379272460938	-156.1397705078125	-782.2374267578125	1395.961791992188	-166.0169982910156	-1016.574279785156	1357.163330078125	-72.05796051025391	-988.4220581054688	1451.515747070312	-254.1229248046875	-891.587158203125	1449.446533203125	-334.7868041992188	-916.54736328125	1319.141845703125	-405.4066772460938	-899.0022583007812	1103.349243164062	-415.6131591796875	-953.678466796875	1092.71923828125	-324.5100402832031	-806.1333618164062	863.4745483398438	-354.6065673828125	-870.1458129882812	852.7667236328125	-407.92578125	-879.7964477539062	994.0557861328125	-421.3652954101562	-795.785400390625	677.7955322265625	-332.8799133300781	-838.3377685546875	770.830078125	-404.6450805664062	-785.5845947265625	781.2615356445312	-357.2973327636719	-879.8118286132812	1457.732299804688	14.67467212677002	-889.2268676757812	1391.91064453125	80.51334381103516	-936.8228149414062	1135.824584960938	130.7778625488281	-926.5045776367188	1105.21826171875	36.03527450561523	-813.141357421875	873.1448974609375	100.2615280151367	-883.0145874023438	867.0289916992188	156.7218322753906	-928.87255859375	1055.093383789062	144.1162261962891	-842.3248901367188	682.22412109375	89.36711883544922	-809.004638671875	764.5186767578125	103.6511840820312	-861.0458984375	773.2767944335938	158.883056640625	-911.1353149414062	1677.819458007812	-224.594970703125	-744.9957275390625	1688.870361328125	-86.94632720947266	-734.355224609375	1701.577026367188	-211.7225646972656	-913.6318969726562	1656.282348632812	-88.15928649902344	-946.4979248046875	967.0652465820312	-322.2059631347656	-933.2396240234375	961.0586547851562	25.44050598144531	-811.7158203125	975.6055908203125	-10.60345649719238	-826.5350341796875	971.5516357421875	-277.4763793945312	-831.2763671875	500.8088684082031	-311.9011535644531	-874.9593505859375	644.4904174804688	-336.1285095214844	-1034.828369140625	64.92255401611328	-345.6306457519531	-944.8001098632812	273.9844360351562	-343.1767578125	-835.95947265625	44.68692016601562	-363.4497375488281	-874.7521362304688	48.17655181884766	-304.4191284179688	-940.9253540039062	41.64996337890625	-396.3864135742188	-1077.949340820312	71.07427215576172	-264.5277099609375	-875.4346923828125	514.044677734375	-19.94277763366699	-858.4692993164062	783.3722534179688	18.63760375976562	-998.3490600585938	44.35480499267578	-43.54584121704102	-902.8245239257812	389.9168090820312	-19.01679420471191	-784.6510620117188	44.78647613525391	-83.94304656982422	-843.7645263671875	45.84809112548828	-121.8515930175781	-872.6173706054688	53.1788330078125	-28.56344795227051	-1047.177001953125	45.76229095458984	-101.6896133422852	
433	4.32	-1007.262451171875	1035.68017578125	-45.06361389160156	-1035.07373046875	1027.7109375	-217.7707977294922	-1016.836608886719	1091.10595703125	-138.0877532958984	-757.7572631835938	1280.386474609375	-164.5103607177734	-1028.658935546875	1227.219848632812	-141.5913848876953	-958.7573852539062	1491.047729492188	-156.8405914306641	-784.0116577148438	1395.992919921875	-166.7498016357422	-1018.416870117188	1356.568359375	-73.0230712890625	-990.3165283203125	1451.245239257812	-254.9132995605469	-893.3936157226562	1449.46875	-335.4972839355469	-918.17431640625	1319.316528320312	-406.4557495117188	-900.630126953125	1103.503295898438	-417.03369140625	-955.8133544921875	1092.795654296875	-326.2763366699219	-808.7120971679688	863.2683715820312	-355.5629272460938	-872.0159301757812	852.9039306640625	-409.7876586914062	-881.4132080078125	994.2181396484375	-422.8550415039062	-799.6694946289062	677.458984375	-333.8771362304688	-840.6100463867188	770.821533203125	-406.242431640625	-788.2431640625	781.0771484375	-357.9873046875	-881.9221801757812	1457.31396484375	14.00360679626465	-891.3311157226562	1391.378173828125	79.71865844726562	-938.9127807617188	1135.142700195312	129.1168670654297	-928.3924560546875	1104.790771484375	34.31333923339844	-815.84716796875	872.2337646484375	98.45576477050781	-885.8092041015625	866.2985229492188	154.7375793457031	-931.126708984375	1054.430541992188	142.2669830322266	-845.7881469726562	681.3939208984375	87.28648376464844	-812.1380004882812	763.5242309570312	101.7014923095703	-864.2092895507812	772.452880859375	156.8741760253906	-913.8692016601562	1677.477783203125	-225.1733245849609	-747.819091796875	1689.066772460938	-87.45999145507812	-737.1510009765625	1701.816162109375	-212.2565155029297	-916.3487548828125	1655.927734375	-88.74240112304688	-947.5651245117188	966.3273315429688	-323.3058471679688	-933.6175537109375	961.1701049804688	24.24996566772461	-812.344970703125	975.8702392578125	-12.09192657470703	-827.5162353515625	971.031494140625	-279.005859375	-838.8967895507812	499.63671875	-312.0340576171875	-881.2308349609375	643.313720703125	-336.6256103515625	-1035.694213867188	61.75627136230469	-344.8702392578125	-948.8383178710938	271.6014099121094	-342.8014831542969	-836.2999267578125	44.50040817260742	-363.5423583984375	-874.8026733398438	47.78598022460938	-304.521484375	-941.4725952148438	40.33547973632812	-396.2326354980469	-1078.720703125	66.80689239501953	-263.5757446289062	-875.5474243164062	514.1991577148438	-20.87799835205078	-858.678955078125	783.56201171875	17.48405265808105	-998.3232421875	44.4205322265625	-43.60880279541016	-902.9246215820312	390.08154296875	-19.73847961425781	-784.6062622070312	44.77017974853516	-84.04935455322266	-843.7861328125	45.78547668457031	-121.9893798828125	-872.6272583007812	53.27513122558594	-28.76586532592773	-1047.179443359375	45.75079345703125	-101.7172241210938	
